<svg width="200" height="200" viewBox="0 0 200 200" fill="none" xmlns="http://www.w3.org/2000/svg">
<path d="M100 192.453C151.06 192.453 192.453 151.06 192.453 100C192.453 48.9397 151.06 7.54717 100 7.54717C48.9397 7.54717 7.54717 48.9397 7.54717 100C7.54717 151.06 48.9397 192.453 100 192.453Z" stroke="white" stroke-width="12"/>
<path d="M117.61 133.333C116.981 132.704 116.981 131.447 116.352 130.189C116.352 128.931 115.723 127.673 115.723 126.415C114.465 127.673 113.208 128.302 111.95 129.56C110.692 130.818 108.805 131.447 107.547 132.075C105.66 132.704 104.403 133.333 101.887 133.962C100 134.591 97.4843 134.591 95.5975 134.591C91.8239 134.591 88.6793 133.962 85.5346 132.704C82.3899 131.447 79.8742 130.189 77.3585 128.302C74.8428 126.415 73.5849 123.899 72.327 121.384C71.0692 118.868 70.4403 115.723 70.4403 112.579C70.4403 105.031 73.5849 98.7421 79.2453 94.9686C84.9057 90.566 93.7107 88.6793 105.031 88.6793H115.723V84.2767C115.723 80.5031 114.465 77.9874 112.579 76.1006C110.063 74.2138 106.918 72.956 102.516 72.956C98.7421 72.956 96.2264 73.5849 94.3396 75.4717C92.4528 77.3585 91.8239 79.2453 91.8239 81.761H72.956C72.956 78.6164 73.5849 75.4717 74.8428 72.956C76.1006 70.4403 77.9874 67.9245 81.1321 65.4088C83.6478 63.522 86.7925 61.6352 90.566 60.3774C94.3396 59.1195 98.7421 58.4906 103.774 58.4906C108.176 58.4906 111.95 59.1195 115.723 60.3774C119.497 61.6352 122.642 62.8931 125.786 65.4088C128.302 67.2956 130.818 70.4403 132.075 73.5849C133.333 76.7296 134.591 80.5031 134.591 84.9057V116.352C134.591 120.126 134.591 123.27 135.22 125.786C135.849 128.302 136.478 130.818 137.107 132.075V133.333H117.61ZM99.3711 120.126C101.258 120.126 103.145 120.126 104.403 119.497C106.289 118.868 107.547 118.239 108.805 117.61C110.063 116.981 111.321 116.352 111.95 115.094C112.579 114.465 113.836 113.208 114.465 112.579V100H105.031C101.887 100 99.3711 100 97.4843 100.629C95.5975 101.258 93.7107 101.887 92.4528 103.145C91.195 104.403 89.9371 105.031 89.3082 106.918C88.6792 108.176 88.6793 110.063 88.6793 111.321C88.6793 113.836 89.3082 115.723 91.195 117.61C93.0818 119.497 96.2264 120.126 99.3711 120.126Z" fill="white"/>
</svg>
